<svg width="1900" height="1080" viewBox="0 0 1900 1080" fill="none" xmlns="http://www.w3.org/2000/svg">
<g clip-path="url(#clip0_269_2)">
<path d="M99.5 0.5H0.5V107.5H99.5V0.5Z" stroke="white" stroke-opacity="0.2"/>
<path d="M99.5 108.5H0.5V215.5H99.5V108.5Z" stroke="white" stroke-opacity="0.2"/>
<path d="M99.5 216.5H0.5V323.5H99.5V216.5Z" stroke="white" stroke-opacity="0.2"/>
<path d="M99.5 324.5H0.5V431.5H99.5V324.5Z" stroke="white" stroke-opacity="0.2"/>
<path d="M99.5 432.5H0.5V539.5H99.5V432.5Z" stroke="white" stroke-opacity="0.2"/>
<path d="M99.5 540.5H0.5V647.5H99.5V540.5Z" stroke="white" stroke-opacity="0.2"/>
<path d="M99.5 648.5H0.5V755.5H99.5V648.5Z" stroke="white" stroke-opacity="0.2"/>
<path d="M99.5 756.5H0.5V863.5H99.5V756.5Z" stroke="white" stroke-opacity="0.2"/>
<path d="M99.5 864.5H0.5V971.5H99.5V864.5Z" stroke="white" stroke-opacity="0.2"/>
<path d="M99.5 972.5H0.5V1079.5H99.5V972.5Z" stroke="white" stroke-opacity="0.2"/>
<path d="M199.5 0.5H100.5V107.5H199.5V0.5Z" stroke="white" stroke-opacity="0.2"/>
<path d="M199.5 108.5H100.5V215.5H199.5V108.5Z" stroke="white" stroke-opacity="0.2"/>
<path d="M199.5 216.5H100.5V323.5H199.5V216.5Z" stroke="white" stroke-opacity="0.2"/>
<path d="M199.5 324.5H100.5V431.5H199.5V324.5Z" stroke="white" stroke-opacity="0.2"/>
<path d="M199.5 432.5H100.5V539.5H199.5V432.5Z" stroke="white" stroke-opacity="0.2"/>
<path d="M199.5 540.5H100.5V647.5H199.5V540.5Z" stroke="white" stroke-opacity="0.2"/>
<path d="M199.5 648.5H100.5V755.5H199.5V648.5Z" stroke="white" stroke-opacity="0.2"/>
<path d="M199.5 756.5H100.5V863.5H199.5V756.5Z" stroke="white" stroke-opacity="0.2"/>
<path d="M199.5 864.5H100.5V971.5H199.5V864.5Z" stroke="white" stroke-opacity="0.2"/>
<path d="M199.5 972.5H100.5V1079.5H199.5V972.5Z" stroke="white" stroke-opacity="0.2"/>
<path d="M299.5 0.5H200.5V107.5H299.5V0.5Z" stroke="white" stroke-opacity="0.2"/>
<path d="M299.5 108.5H200.5V215.5H299.5V108.5Z" stroke="white" stroke-opacity="0.2"/>
<path d="M299.5 216.5H200.5V323.5H299.5V216.5Z" stroke="white" stroke-opacity="0.2"/>
<path d="M299.5 324.5H200.5V431.5H299.5V324.5Z" stroke="white" stroke-opacity="0.2"/>
<path d="M299.5 432.5H200.5V539.5H299.5V432.5Z" stroke="white" stroke-opacity="0.2"/>
<path d="M299.5 540.5H200.5V647.5H299.5V540.5Z" stroke="white" stroke-opacity="0.2"/>
<path d="M299.5 648.5H200.5V755.5H299.5V648.5Z" stroke="white" stroke-opacity="0.2"/>
<path d="M299.5 756.5H200.5V863.5H299.5V756.5Z" stroke="white" stroke-opacity="0.2"/>
<path d="M299.5 864.5H200.5V971.5H299.5V864.5Z" stroke="white" stroke-opacity="0.2"/>
<path d="M299.5 972.5H200.5V1079.5H299.5V972.5Z" stroke="white" stroke-opacity="0.2"/>
<path d="M399.5 0.5H300.5V107.5H399.5V0.5Z" stroke="white" stroke-opacity="0.2"/>
<path d="M399.5 108.5H300.5V215.5H399.5V108.5Z" stroke="white" stroke-opacity="0.2"/>
<path d="M399.5 216.5H300.5V323.5H399.5V216.5Z" stroke="white" stroke-opacity="0.2"/>
<path d="M399.5 324.5H300.5V431.5H399.5V324.5Z" stroke="white" stroke-opacity="0.2"/>
<path d="M399.5 432.5H300.5V539.5H399.5V432.5Z" stroke="white" stroke-opacity="0.2"/>
<path d="M399.5 540.5H300.5V647.5H399.5V540.5Z" stroke="white" stroke-opacity="0.2"/>
<path d="M399.5 648.5H300.5V755.5H399.5V648.5Z" stroke="white" stroke-opacity="0.2"/>
<path d="M399.5 756.5H300.5V863.5H399.5V756.5Z" stroke="white" stroke-opacity="0.2"/>
<path d="M399.5 864.5H300.5V971.5H399.5V864.5Z" stroke="white" stroke-opacity="0.2"/>
<path d="M399.5 972.5H300.5V1079.5H399.5V972.5Z" stroke="white" stroke-opacity="0.2"/>
<path d="M499.5 0.5H400.5V107.5H499.5V0.5Z" stroke="white" stroke-opacity="0.2"/>
<path d="M499.5 108.5H400.5V215.5H499.5V108.5Z" stroke="white" stroke-opacity="0.2"/>
<path d="M499.5 216.5H400.5V323.5H499.5V216.5Z" stroke="white" stroke-opacity="0.2"/>
<path d="M499.5 324.5H400.5V431.5H499.5V324.5Z" stroke="white" stroke-opacity="0.2"/>
<path d="M499.5 432.5H400.5V539.5H499.5V432.5Z" stroke="white" stroke-opacity="0.2"/>
<path d="M499.5 540.5H400.5V647.5H499.5V540.5Z" stroke="white" stroke-opacity="0.2"/>
<path d="M499.5 648.5H400.5V755.5H499.5V648.5Z" stroke="white" stroke-opacity="0.2"/>
<path d="M499.5 756.5H400.5V863.5H499.5V756.5Z" stroke="white" stroke-opacity="0.2"/>
<path d="M499.5 864.5H400.5V971.5H499.5V864.5Z" stroke="white" stroke-opacity="0.2"/>
<path d="M499.5 972.5H400.5V1079.5H499.5V972.5Z" stroke="white" stroke-opacity="0.2"/>
<path d="M599.5 0.5H500.5V107.5H599.5V0.5Z" stroke="white" stroke-opacity="0.2"/>
<path d="M599.5 108.5H500.5V215.5H599.5V108.5Z" stroke="white" stroke-opacity="0.2"/>
<path d="M599.5 216.5H500.5V323.5H599.5V216.5Z" stroke="white" stroke-opacity="0.2"/>
<path d="M599.5 324.5H500.5V431.5H599.5V324.5Z" stroke="white" stroke-opacity="0.2"/>
<path d="M599.5 432.5H500.5V539.5H599.5V432.5Z" stroke="white" stroke-opacity="0.2"/>
<path d="M599.5 540.5H500.5V647.5H599.5V540.5Z" stroke="white" stroke-opacity="0.2"/>
<path d="M599.5 648.5H500.5V755.5H599.5V648.5Z" stroke="white" stroke-opacity="0.2"/>
<path d="M599.5 756.5H500.5V863.5H599.5V756.5Z" stroke="white" stroke-opacity="0.2"/>
<path d="M599.5 864.5H500.5V971.5H599.5V864.5Z" stroke="white" stroke-opacity="0.2"/>
<path d="M599.5 972.5H500.5V1079.5H599.5V972.5Z" stroke="white" stroke-opacity="0.2"/>
<path d="M699.5 0.5H600.5V107.5H699.5V0.5Z" stroke="white" stroke-opacity="0.2"/>
<path d="M699.5 108.5H600.5V215.5H699.5V108.5Z" stroke="white" stroke-opacity="0.2"/>
<path d="M699.5 216.5H600.5V323.5H699.5V216.5Z" stroke="white" stroke-opacity="0.2"/>
<path d="M699.5 324.5H600.5V431.5H699.5V324.5Z" stroke="white" stroke-opacity="0.2"/>
<path d="M699.5 432.5H600.5V539.5H699.5V432.5Z" stroke="white" stroke-opacity="0.2"/>
<path d="M699.5 540.5H600.5V647.5H699.5V540.5Z" stroke="white" stroke-opacity="0.2"/>
<path d="M699.5 648.5H600.5V755.5H699.5V648.5Z" stroke="white" stroke-opacity="0.2"/>
<path d="M699.5 756.5H600.5V863.5H699.5V756.5Z" stroke="white" stroke-opacity="0.2"/>
<path d="M699.5 864.5H600.5V971.5H699.5V864.5Z" stroke="white" stroke-opacity="0.2"/>
<path d="M699.5 972.5H600.5V1079.5H699.5V972.5Z" stroke="white" stroke-opacity="0.2"/>
<path d="M799.5 0.5H700.5V107.5H799.5V0.5Z" stroke="white" stroke-opacity="0.2"/>
<path d="M799.5 108.5H700.5V215.5H799.5V108.5Z" stroke="white" stroke-opacity="0.2"/>
<path d="M799.5 216.5H700.5V323.5H799.5V216.5Z" stroke="white" stroke-opacity="0.2"/>
<path d="M799.5 324.5H700.5V431.5H799.5V324.5Z" stroke="white" stroke-opacity="0.2"/>
<path d="M799.5 432.5H700.5V539.5H799.5V432.5Z" stroke="white" stroke-opacity="0.2"/>
<path d="M799.5 540.5H700.5V647.5H799.5V540.5Z" stroke="white" stroke-opacity="0.2"/>
<path d="M799.5 648.5H700.5V755.5H799.5V648.5Z" stroke="white" stroke-opacity="0.2"/>
<path d="M799.5 756.5H700.5V863.5H799.5V756.5Z" stroke="white" stroke-opacity="0.2"/>
<path d="M799.5 864.5H700.5V971.5H799.5V864.5Z" stroke="white" stroke-opacity="0.2"/>
<path d="M799.5 972.5H700.5V1079.5H799.5V972.5Z" stroke="white" stroke-opacity="0.2"/>
<path d="M899.5 0.5H800.5V107.5H899.5V0.5Z" stroke="white" stroke-opacity="0.2"/>
<path d="M899.5 108.5H800.5V215.5H899.5V108.5Z" stroke="white" stroke-opacity="0.2"/>
<path d="M899.5 216.5H800.5V323.5H899.5V216.5Z" stroke="white" stroke-opacity="0.2"/>
<path d="M899.5 324.5H800.5V431.5H899.5V324.5Z" stroke="white" stroke-opacity="0.2"/>
<path d="M899.5 432.5H800.5V539.5H899.5V432.5Z" stroke="white" stroke-opacity="0.2"/>
<path d="M899.5 540.5H800.5V647.5H899.5V540.5Z" stroke="white" stroke-opacity="0.2"/>
<path d="M899.5 648.5H800.5V755.5H899.5V648.5Z" stroke="white" stroke-opacity="0.2"/>
<path d="M899.5 756.5H800.5V863.5H899.5V756.5Z" stroke="white" stroke-opacity="0.2"/>
<path d="M899.5 864.5H800.5V971.5H899.5V864.5Z" stroke="white" stroke-opacity="0.2"/>
<path d="M899.5 972.5H800.5V1079.5H899.5V972.5Z" stroke="white" stroke-opacity="0.2"/>
<path d="M999.5 0.5H900.5V107.5H999.5V0.5Z" stroke="white" stroke-opacity="0.2"/>
<path d="M999.5 108.5H900.5V215.5H999.5V108.5Z" stroke="white" stroke-opacity="0.2"/>
<path d="M999.5 216.5H900.5V323.5H999.5V216.5Z" stroke="white" stroke-opacity="0.2"/>
<path d="M999.5 324.5H900.5V431.5H999.5V324.5Z" stroke="white" stroke-opacity="0.2"/>
<path d="M999.5 432.5H900.5V539.5H999.5V432.5Z" stroke="white" stroke-opacity="0.2"/>
<path d="M999.5 540.5H900.5V647.5H999.5V540.5Z" stroke="white" stroke-opacity="0.2"/>
<path d="M999.5 648.5H900.5V755.5H999.5V648.5Z" stroke="white" stroke-opacity="0.2"/>
<path d="M999.5 756.5H900.5V863.5H999.5V756.5Z" stroke="white" stroke-opacity="0.2"/>
<path d="M999.5 864.5H900.5V971.5H999.5V864.5Z" stroke="white" stroke-opacity="0.2"/>
<path d="M999.5 972.5H900.5V1079.5H999.5V972.5Z" stroke="white" stroke-opacity="0.2"/>
<path d="M1099.5 0.5H1000.5V107.5H1099.5V0.5Z" stroke="white" stroke-opacity="0.2"/>
<path d="M1099.5 108.5H1000.5V215.5H1099.5V108.5Z" stroke="white" stroke-opacity="0.2"/>
<path d="M1099.5 216.5H1000.5V323.5H1099.5V216.5Z" stroke="white" stroke-opacity="0.2"/>
<path d="M1099.5 324.5H1000.5V431.5H1099.5V324.5Z" stroke="white" stroke-opacity="0.2"/>
<path d="M1099.5 432.5H1000.5V539.5H1099.5V432.5Z" stroke="white" stroke-opacity="0.2"/>
<path d="M1099.5 540.5H1000.5V647.5H1099.5V540.5Z" stroke="white" stroke-opacity="0.2"/>
<path d="M1099.5 648.5H1000.5V755.5H1099.5V648.5Z" stroke="white" stroke-opacity="0.2"/>
<path d="M1099.5 756.5H1000.5V863.5H1099.5V756.5Z" stroke="white" stroke-opacity="0.2"/>
<path d="M1099.5 864.5H1000.5V971.5H1099.5V864.5Z" stroke="white" stroke-opacity="0.2"/>
<path d="M1099.5 972.5H1000.5V1079.5H1099.5V972.5Z" stroke="white" stroke-opacity="0.2"/>
<path d="M1199.5 0.5H1100.5V107.5H1199.5V0.5Z" stroke="white" stroke-opacity="0.2"/>
<path d="M1199.5 108.5H1100.5V215.5H1199.5V108.5Z" stroke="white" stroke-opacity="0.2"/>
<path d="M1199.5 216.5H1100.5V323.5H1199.5V216.5Z" stroke="white" stroke-opacity="0.2"/>
<path d="M1199.5 324.5H1100.5V431.5H1199.5V324.5Z" stroke="white" stroke-opacity="0.2"/>
<path d="M1199.5 432.5H1100.5V539.5H1199.5V432.5Z" stroke="white" stroke-opacity="0.2"/>
<path d="M1199.5 540.5H1100.5V647.5H1199.5V540.5Z" stroke="white" stroke-opacity="0.2"/>
<path d="M1199.5 648.5H1100.5V755.5H1199.5V648.5Z" stroke="white" stroke-opacity="0.2"/>
<path d="M1199.5 756.5H1100.5V863.5H1199.5V756.5Z" stroke="white" stroke-opacity="0.2"/>
<path d="M1199.5 864.5H1100.5V971.5H1199.5V864.5Z" stroke="white" stroke-opacity="0.2"/>
<path d="M1199.5 972.5H1100.5V1079.5H1199.5V972.5Z" stroke="white" stroke-opacity="0.2"/>
<path d="M1299.5 0.5H1200.5V107.5H1299.5V0.5Z" stroke="white" stroke-opacity="0.2"/>
<path d="M1299.5 108.5H1200.5V215.5H1299.5V108.5Z" stroke="white" stroke-opacity="0.2"/>
<path d="M1299.5 216.5H1200.5V323.5H1299.5V216.5Z" stroke="white" stroke-opacity="0.2"/>
<path d="M1299.5 324.5H1200.5V431.5H1299.5V324.5Z" stroke="white" stroke-opacity="0.2"/>
<path d="M1299.5 432.5H1200.5V539.5H1299.5V432.5Z" stroke="white" stroke-opacity="0.2"/>
<path d="M1299.5 540.5H1200.5V647.5H1299.5V540.5Z" stroke="white" stroke-opacity="0.2"/>
<path d="M1299.5 648.5H1200.5V755.5H1299.5V648.5Z" stroke="white" stroke-opacity="0.2"/>
<path d="M1299.5 756.5H1200.5V863.5H1299.5V756.5Z" stroke="white" stroke-opacity="0.2"/>
<path d="M1299.5 864.5H1200.5V971.5H1299.5V864.5Z" stroke="white" stroke-opacity="0.2"/>
<path d="M1299.5 972.5H1200.5V1079.5H1299.5V972.5Z" stroke="white" stroke-opacity="0.2"/>
<path d="M1399.5 0.5H1300.5V107.5H1399.5V0.5Z" stroke="white" stroke-opacity="0.2"/>
<path d="M1399.5 108.5H1300.5V215.5H1399.5V108.5Z" stroke="white" stroke-opacity="0.2"/>
<path d="M1399.5 216.5H1300.5V323.5H1399.5V216.5Z" stroke="white" stroke-opacity="0.2"/>
<path d="M1399.5 324.5H1300.5V431.5H1399.5V324.5Z" stroke="white" stroke-opacity="0.2"/>
<path d="M1399.5 432.5H1300.5V539.5H1399.5V432.5Z" stroke="white" stroke-opacity="0.2"/>
<path d="M1399.5 540.5H1300.5V647.5H1399.5V540.5Z" stroke="white" stroke-opacity="0.2"/>
<path d="M1399.5 648.5H1300.5V755.5H1399.5V648.5Z" stroke="white" stroke-opacity="0.2"/>
<path d="M1399.5 756.5H1300.5V863.5H1399.5V756.5Z" stroke="white" stroke-opacity="0.2"/>
<path d="M1399.5 864.5H1300.5V971.5H1399.5V864.5Z" stroke="white" stroke-opacity="0.2"/>
<path d="M1399.5 972.5H1300.5V1079.5H1399.5V972.5Z" stroke="white" stroke-opacity="0.2"/>
<path d="M1499.5 0.5H1400.5V107.5H1499.5V0.5Z" stroke="white" stroke-opacity="0.2"/>
<path d="M1499.5 108.5H1400.5V215.5H1499.5V108.5Z" stroke="white" stroke-opacity="0.2"/>
<path d="M1499.5 216.5H1400.5V323.5H1499.5V216.5Z" stroke="white" stroke-opacity="0.2"/>
<path d="M1499.5 324.5H1400.5V431.5H1499.5V324.5Z" stroke="white" stroke-opacity="0.2"/>
<path d="M1499.5 432.5H1400.5V539.5H1499.5V432.5Z" stroke="white" stroke-opacity="0.2"/>
<path d="M1499.5 540.5H1400.5V647.5H1499.5V540.5Z" stroke="white" stroke-opacity="0.2"/>
<path d="M1499.5 648.5H1400.5V755.5H1499.5V648.5Z" stroke="white" stroke-opacity="0.2"/>
<path d="M1499.5 756.5H1400.5V863.5H1499.5V756.5Z" stroke="white" stroke-opacity="0.2"/>
<path d="M1499.5 864.5H1400.5V971.5H1499.5V864.5Z" stroke="white" stroke-opacity="0.2"/>
<path d="M1499.5 972.5H1400.5V1079.5H1499.5V972.5Z" stroke="white" stroke-opacity="0.2"/>
<path d="M1599.5 0.5H1500.5V107.5H1599.5V0.5Z" stroke="white" stroke-opacity="0.2"/>
<path d="M1599.5 108.5H1500.5V215.5H1599.5V108.5Z" stroke="white" stroke-opacity="0.2"/>
<path d="M1599.5 216.5H1500.5V323.5H1599.5V216.5Z" stroke="white" stroke-opacity="0.2"/>
<path d="M1599.5 324.5H1500.5V431.5H1599.5V324.5Z" stroke="white" stroke-opacity="0.2"/>
<path d="M1599.5 432.5H1500.5V539.5H1599.5V432.5Z" stroke="white" stroke-opacity="0.2"/>
<path d="M1599.5 540.5H1500.5V647.5H1599.5V540.5Z" stroke="white" stroke-opacity="0.2"/>
<path d="M1599.5 648.5H1500.5V755.5H1599.5V648.5Z" stroke="white" stroke-opacity="0.2"/>
<path d="M1599.5 756.5H1500.5V863.5H1599.5V756.5Z" stroke="white" stroke-opacity="0.2"/>
<path d="M1599.5 864.5H1500.5V971.5H1599.5V864.5Z" stroke="white" stroke-opacity="0.2"/>
<path d="M1599.5 972.5H1500.5V1079.5H1599.5V972.5Z" stroke="white" stroke-opacity="0.2"/>
<path d="M1699.5 0.5H1600.5V107.5H1699.5V0.5Z" stroke="white" stroke-opacity="0.2"/>
<path d="M1699.5 108.5H1600.5V215.5H1699.5V108.5Z" stroke="white" stroke-opacity="0.2"/>
<path d="M1699.5 216.5H1600.5V323.5H1699.5V216.5Z" stroke="white" stroke-opacity="0.2"/>
<path d="M1699.5 324.5H1600.5V431.5H1699.5V324.5Z" stroke="white" stroke-opacity="0.2"/>
<path d="M1699.5 432.5H1600.5V539.5H1699.5V432.5Z" stroke="white" stroke-opacity="0.2"/>
<path d="M1699.5 540.5H1600.5V647.5H1699.5V540.5Z" stroke="white" stroke-opacity="0.2"/>
<path d="M1699.5 648.5H1600.5V755.5H1699.5V648.5Z" stroke="white" stroke-opacity="0.2"/>
<path d="M1699.5 756.5H1600.5V863.5H1699.5V756.5Z" stroke="white" stroke-opacity="0.2"/>
<path d="M1699.5 864.5H1600.5V971.5H1699.5V864.5Z" stroke="white" stroke-opacity="0.2"/>
<path d="M1699.5 972.5H1600.5V1079.5H1699.5V972.5Z" stroke="white" stroke-opacity="0.2"/>
<path d="M1799.5 0.5H1700.5V107.5H1799.5V0.5Z" stroke="white" stroke-opacity="0.2"/>
<path d="M1799.5 108.5H1700.5V215.5H1799.5V108.5Z" stroke="white" stroke-opacity="0.2"/>
<path d="M1799.5 216.5H1700.5V323.5H1799.5V216.5Z" stroke="white" stroke-opacity="0.2"/>
<path d="M1799.5 324.5H1700.5V431.5H1799.5V324.5Z" stroke="white" stroke-opacity="0.2"/>
<path d="M1799.5 432.5H1700.5V539.5H1799.5V432.5Z" stroke="white" stroke-opacity="0.2"/>
<path d="M1799.5 540.5H1700.5V647.5H1799.5V540.5Z" stroke="white" stroke-opacity="0.2"/>
<path d="M1799.5 648.5H1700.5V755.5H1799.5V648.5Z" stroke="white" stroke-opacity="0.2"/>
<path d="M1799.5 756.5H1700.5V863.5H1799.5V756.5Z" stroke="white" stroke-opacity="0.2"/>
<path d="M1799.5 864.5H1700.5V971.5H1799.5V864.5Z" stroke="white" stroke-opacity="0.2"/>
<path d="M1799.5 972.5H1700.5V1079.5H1799.5V972.5Z" stroke="white" stroke-opacity="0.2"/>
<path d="M1899.5 0.5H1800.5V107.5H1899.5V0.5Z" stroke="white" stroke-opacity="0.2"/>
<path d="M1899.5 108.5H1800.5V215.5H1899.5V108.5Z" stroke="white" stroke-opacity="0.2"/>
<path d="M1899.5 216.5H1800.5V323.5H1899.5V216.5Z" stroke="white" stroke-opacity="0.2"/>
<path d="M1899.5 324.5H1800.5V431.5H1899.5V324.5Z" stroke="white" stroke-opacity="0.2"/>
<path d="M1899.5 432.5H1800.5V539.5H1899.5V432.5Z" stroke="white" stroke-opacity="0.2"/>
<path d="M1899.5 540.5H1800.5V647.5H1899.5V540.5Z" stroke="white" stroke-opacity="0.2"/>
<path d="M1899.5 648.5H1800.5V755.5H1899.5V648.5Z" stroke="white" stroke-opacity="0.2"/>
<path d="M1899.5 756.5H1800.5V863.5H1899.5V756.5Z" stroke="white" stroke-opacity="0.2"/>
<path d="M1899.5 864.5H1800.5V971.5H1899.5V864.5Z" stroke="white" stroke-opacity="0.2"/>
<path d="M1899.5 972.5H1800.5V1079.5H1899.5V972.5Z" stroke="white" stroke-opacity="0.2"/>
</g>
<defs>
<clipPath id="clip0_269_2">
<rect width="1900" height="1080" fill="white"/>
</clipPath>
</defs>
</svg>
